<?xml version="1.0" standalone="no"?>
<!DOCTYPE svg PUBLIC "-//W3C//DTD SVG 20010904//EN"
 "http://www.w3.org/TR/2001/REC-SVG-20010904/DTD/svg10.dtd">
<svg version="1.0" xmlns="http://www.w3.org/2000/svg"
 width="500.000000pt" height="500.000000pt" viewBox="0 0 500.000000 500.000000"
 preserveAspectRatio="xMidYMid meet">

<g transform="translate(0.000000,500.000000) scale(0.100000,-0.100000)"
fill="#000000" stroke="none">
<path d="M2010 3534 c-158 -24 -322 -135 -385 -261 -28 -55 -30 -64 -30 -183
0 -120 1 -128 32 -192 37 -78 96 -146 173 -198 57 -38 181 -93 238 -105 52
-11 203 -74 257 -108 74 -46 134 -97 160 -135 l24 -35 10 39 c6 22 17 61 25
87 l14 48 -72 58 c-82 65 -217 134 -353 180 -286 96 -392 212 -381 412 4 67
11 91 47 163 78 158 217 236 384 214 178 -24 327 -196 327 -378 0 -17 5 -30
10 -30 6 0 10 78 10 215 0 197 -8 256 -24 190 -4 -14 -18 -32 -32 -41 -24 -16
-28 -16 -102 14 -113 47 -224 62 -332 46z"/>
<path d="M2714 3493 c4 -4 21 -12 39 -18 35 -11 77 -66 77 -101 0 -12 -19 -94
-41 -181 -23 -87 -67 -257 -99 -378 -32 -121 -77 -292 -100 -380 -23 -88 -55
-218 -70 -290 -43 -200 -72 -259 -174 -353 -157 -143 -374 -130 -569 33 -89
74 -157 193 -176 307 -6 37 -9 -23 -8 -202 0 -140 2 -245 4 -232 2 12 19 38
37 57 45 47 88 47 165 1 91 -56 193 -79 320 -74 221 10 379 103 461 273 25 52
82 254 210 750 16 61 43 162 59 225 17 63 43 162 57 220 14 58 30 109 34 113
4 5 13 -13 19 -40 7 -26 28 -102 47 -168 19 -66 48 -165 64 -220 16 -55 42
-147 59 -204 17 -57 31 -112 31 -121 0 -15 -13 -18 -92 -22 -145 -8 -226 -47
-300 -145 -50 -65 -57 -90 -183 -582 -14 -51 -30 -99 -36 -107 -9 -11 -8 -14
4 -14 18 0 13 -16 76 230 28 107 61 237 75 288 38 142 97 222 206 278 50 27
64 29 160 29 l104 0 23 -80 c13 -44 39 -132 57 -195 52 -176 105 -362 112
-392 13 -60 -39 -138 -92 -138 -13 0 -24 -5 -24 -10 0 -7 60 -10 172 -9 116 1
166 4 155 11 -10 5 -23 7 -30 5 -7 -2 -25 3 -42 11 -86 43 -115 86 -153 232
-11 41 -41 147 -67 235 -26 88 -54 185 -62 215 -8 30 -35 125 -60 210 -25 85
-52 180 -60 210 -8 30 -25 91 -38 135 -13 44 -42 145 -65 223 -35 118 -41 155
-38 204 4 53 8 63 45 100 35 34 49 42 92 46 28 2 51 8 51 13 0 5 -100 9 -222
9 -122 0 -218 -3 -214 -7z"/>
</g>
</svg>
